<?xml version="1.0" encoding="UTF-8"?>
<svg width="180px" height="180px" viewBox="0 0 180 180" version="1.1" xmlns="http://www.w3.org/2000/svg" xmlns:xlink="http://www.w3.org/1999/xlink" xmlns:sketch="http://www.bohemiancoding.com/sketch/ns">
    <!-- Generator: Sketch 3.5.1 (25234) - http://www.bohemiancoding.com/sketch -->
    <title>Group</title>
    <desc>Created with Sketch.</desc>
    <defs></defs>
    <g id="Page-1" stroke="none" stroke-width="1" fill="none" fill-rule="evenodd" sketch:type="MSPage">
        <g id="Group" sketch:type="MSLayerGroup">
            <path d="M90,180 C139.705627,180 180,139.705627 180,90 C180,40.2943725 139.705627,0 90,0 C40.2943725,0 0,40.2943725 0,90 C0,139.705627 40.2943725,180 90,180 Z" id="Oval-1" fill="#FFFFFF" sketch:type="MSShapeGroup"></path>
            <g id="facebook" transform="translate(72.000000, 50.000000)" fill="#020201" sketch:type="MSShapeGroup">
                <g id="Layer_1">
                    <g id="_x23_020201ff">
                        <path d="M12.2481443,4.11176755 C15.3122784,1.14847458 19.6706495,0.147602906 23.7820361,0.0228571429 C28.130299,-0.0168523002 32.4768454,0.00716707022 36.8251082,0.00891041162 C36.8422732,4.66769976 36.843799,9.32823245 36.8233918,13.9868281 C34.013299,13.9817918 31.201299,13.9938015 28.3912062,13.9817918 C26.6092938,13.8690557 24.7795103,15.2408717 24.4556649,17.0349637 C24.4129433,20.1522518 24.4402165,23.2712833 24.441933,26.3887651 C28.5634278,26.4060048 32.6849227,26.3835351 36.8062268,26.3992252 C36.5045052,30.908862 35.953701,35.3979661 35.3075361,39.8696368 C31.6670412,39.9043099 28.0244485,39.8661501 24.3841443,39.8888136 C24.3517216,53.18954 24.4011186,66.4902663 24.3585876,79.7909927 C18.9512474,79.8134625 13.5406649,79.7805327 8.13351546,79.8064891 C8.03109794,66.5040194 8.14190722,53.19477 8.07725258,39.8905569 C5.43919072,39.8626634 2.79960309,39.9097337 0.161731959,39.8680872 C0.171840206,35.3964165 0.165164948,30.9249395 0.166690722,26.4548184 C2.80284536,26.4220823 5.44090722,26.4617918 8.07725258,26.4358354 C8.15735567,22.0887167 7.99695876,17.7365617 8.16078866,13.3931235 C8.42512887,9.95331719 9.71593299,6.48774818 12.2481443,4.11176755 L12.2481443,4.11176755 Z" id="Shape"></path>
                    </g>
                </g>
            </g>
        </g>
    </g>
</svg>