<?xml version="1.0" encoding="UTF-8"?>
<svg width="180px" height="180px" viewBox="0 0 180 180" version="1.1" xmlns="http://www.w3.org/2000/svg" xmlns:xlink="http://www.w3.org/1999/xlink" xmlns:sketch="http://www.bohemiancoding.com/sketch/ns">
    <!-- Generator: Sketch 3.5.1 (25234) - http://www.bohemiancoding.com/sketch -->
    <title>Group 3</title>
    <desc>Created with Sketch.</desc>
    <defs></defs>
    <g id="Page-1" stroke="none" stroke-width="1" fill="none" fill-rule="evenodd" sketch:type="MSPage">
        <g id="Group-3" sketch:type="MSLayerGroup">
            <g id="Group" fill="#FFFFFF" sketch:type="MSShapeGroup">
                <path d="M90,180 C139.705627,180 180,139.705627 180,90 C180,40.2943725 139.705627,0 90,0 C40.2943725,0 0,40.2943725 0,90 C0,139.705627 40.2943725,180 90,180 Z" id="Oval-1"></path>
            </g>
            <g id="github" transform="translate(50.000000, 50.000000)" fill="#181717" sketch:type="MSShapeGroup">
                <g id="Group" transform="translate(0.570857, 0.189143)">
                    <g transform="translate(0.381211, 0.476394)" id="Shape">
                        <path d="M39.5428888,1.05000084 C18.126205,1.05000084 0.761905371,18.4143004 0.761905371,39.8357462 C0.761905371,56.9714741 11.873819,71.5072001 27.2857361,76.6381565 C29.2262139,76.9929187 29.9333573,75.7952987 29.9333573,74.7667265 C29.9333573,73.8476781 29.9000239,71.4072 29.8809763,68.1714831 C19.0928724,70.5143421 16.8166801,62.9714789 16.8166801,62.9714789 C15.052393,58.4929039 12.5095338,57.3000458 12.5095338,57.3000458 C8.98810243,54.8929011 12.7762007,54.9405201 12.7762007,54.9405201 C16.669061,55.2167108 18.7166816,58.9381424 18.7166816,58.9381424 C22.1762082,64.8643376 27.7952603,63.1524315 30.0047859,62.1619545 C30.3571671,59.6548096 31.3571679,57.9452845 32.4666926,56.9762361 C23.854781,55.9976638 14.8000118,52.6690898 14.8000118,37.8071731 C14.8000118,33.5738364 16.3119178,30.1119289 18.7928722,27.4000219 C18.3928719,26.4190688 17.0619184,22.4762085 19.1714439,17.135728 C19.1714439,17.135728 22.4285894,16.09287 29.8381191,21.1119217 C32.9309787,20.2523972 36.250029,19.8214444 39.5476507,19.8071587 C42.8405105,19.8214444 46.1595607,20.2523972 49.2571823,21.1119217 C56.6619501,16.09287 59.9119527,17.135728 59.9119527,17.135728 C62.0286211,22.4762085 60.6976676,26.4190688 60.2976673,27.4000219 C62.7833836,30.1119289 64.2857657,33.5738364 64.2857657,37.8071731 C64.2857657,52.707185 55.2167108,55.9857591 46.5762277,56.9452837 C47.969086,58.1429037 49.2095632,60.5095722 49.2095632,64.1286227 C49.2095632,69.3119602 49.1619441,73.4952969 49.1619441,74.7667265 C49.1619441,75.8048225 49.8595637,77.0119664 51.8286129,76.6333946 C67.2286252,71.4929143 78.331015,56.9667122 78.331015,39.8357462 C78.331015,18.4143004 60.9643345,1.05000084 39.5428888,1.05000084"></path>
                    </g>
                </g>
            </g>
        </g>
    </g>
</svg>