<?xml version="1.0" encoding="UTF-8"?>
<svg width="24px" height="19px" viewBox="0 0 24 19" version="1.1" xmlns="http://www.w3.org/2000/svg" xmlns:xlink="http://www.w3.org/1999/xlink" xmlns:sketch="http://www.bohemiancoding.com/sketch/ns">
    <!-- Generator: Sketch 3.5.1 (25234) - http://www.bohemiancoding.com/sketch -->
    <title>Shape</title>
    <desc>Created with Sketch.</desc>
    <defs></defs>
    <g id="Page-1" stroke="none" stroke-width="1" fill="none" fill-rule="evenodd" sketch:type="MSPage">
        <path d="M7.49864743,15.2312713 L6.84317126,15.8867475 C6.75577443,15.9741443 6.65526809,16.0178427 6.54165222,16.0178427 C6.42803635,16.0178427 6.32753,15.9741443 6.24013318,15.8867475 L0.131095235,9.77770952 C0.0436984116,9.69031269 0,9.58980635 0,9.47619048 C0,9.36257461 0.0436984116,9.26206826 0.131095235,9.17467144 L6.24013318,3.06563349 C6.32753,2.97823667 6.42803635,2.93453826 6.54165222,2.93453826 C6.65526809,2.93453826 6.75577443,2.97823667 6.84317126,3.06563349 L7.49864743,3.72110967 C7.58604425,3.80850649 7.62974266,3.90901284 7.62974266,4.02262871 C7.62974266,4.13624458 7.58604425,4.23675093 7.49864743,4.32414775 L2.3466047,9.47619048 L7.49864743,14.6282332 C7.58604425,14.71563 7.62974266,14.8161364 7.62974266,14.9297522 C7.62974266,15.0433681 7.58604425,15.1438745 7.49864743,15.2312713 L7.49864743,15.2312713 Z M15.2463758,1.24340973 L10.3565235,18.1678045 C10.3215648,18.2814204 10.2538323,18.3666323 10.1533259,18.4234403 C10.0528196,18.4802482 9.95012832,18.4911728 9.84525213,18.4562141 L9.03246168,18.2333522 C8.91884581,18.1983934 8.8336339,18.1306609 8.77682597,18.0301545 C8.72001803,17.9296482 8.70909343,17.8225871 8.74405216,17.7089712 L13.6339044,0.784576409 C13.6688631,0.670960539 13.7365957,0.585748637 13.837102,0.528940702 C13.9376084,0.472132767 14.0402996,0.461208164 14.1451758,0.496166893 L14.9579663,0.719028792 C15.0715822,0.753987521 15.1567941,0.821720059 15.213602,0.922226406 C15.2704099,1.02273275 15.2813345,1.12979386 15.2463758,1.24340973 L15.2463758,1.24340973 Z M23.8593327,9.77770952 L17.7502948,15.8867475 C17.662898,15.9741443 17.5623916,16.0178427 17.4487758,16.0178427 C17.3351599,16.0178427 17.2346535,15.9741443 17.1472567,15.8867475 L16.4917805,15.2312713 C16.4043837,15.1438745 16.3606853,15.0433681 16.3606853,14.9297522 C16.3606853,14.8161364 16.4043837,14.71563 16.4917805,14.6282332 L21.6438233,9.47619048 L16.4917805,4.32414775 C16.4043837,4.23675093 16.3606853,4.13624458 16.3606853,4.02262871 C16.3606853,3.90901284 16.4043837,3.80850649 16.4917805,3.72110967 L17.1472567,3.06563349 C17.2346535,2.97823667 17.3351599,2.93453826 17.4487758,2.93453826 C17.5623916,2.93453826 17.662898,2.97823667 17.7502948,3.06563349 L23.8593327,9.17467144 C23.9467296,9.26206826 23.990428,9.36257461 23.990428,9.47619048 C23.990428,9.58980635 23.9467296,9.69031269 23.8593327,9.77770952 L23.8593327,9.77770952 Z" id="Shape" fill="#FFFFFF" sketch:type="MSShapeGroup"></path>
    </g>
</svg>