<?xml version="1.0" encoding="UTF-8"?>
<svg width="282px" height="244px" viewBox="0 0 282 244" version="1.1" xmlns="http://www.w3.org/2000/svg" xmlns:xlink="http://www.w3.org/1999/xlink">
    <!-- Generator: Sketch 57.1 (83088) - https://sketch.com -->
    <title>Download</title>
    <desc>Created with Sketch.</desc>
    <g id="Page-1" stroke="none" stroke-width="1" fill="none" fill-rule="evenodd">
        <g id="Artboard" transform="translate(-960.000000, -1162.000000)" fill="#0A84FF" stroke="#0A84FF" stroke-width="5">
            <g id="Download" transform="translate(963.000000, 1165.000000)">
                <g id="Group" transform="translate(138.000000, 118.500000) scale(-1, 1) rotate(-180.000000) translate(-138.000000, -118.500000) ">
                    <path d="M155.472868,236.947759 C153.263755,236.791036 149.489128,236.303453 147.29741,235.902939 C125.675931,231.932623 106.941955,217.844967 96.2964644,197.558046 L95.1658158,195.433578 L94.7483456,195.747024 C93.7568538,196.513226 90.6606164,198.28942 88.6428436,199.264585 C80.6587257,203.078178 72.744186,203.844379 64.0642844,201.61543 C49.522405,197.888905 38.4594441,185.542616 35.9720174,170.27083 C35.7806769,169.121528 35.6241255,167.832917 35.6241255,167.397575 C35.6241255,166.962234 35.5545472,166.526892 35.4849688,166.42241 C35.4153904,166.300514 34.493477,165.865173 33.4324069,165.429831 C17.0119115,158.708156 4.9052751,144.568259 1.20022689,127.781484 C-0.191340518,121.44291 -0.382681036,114.268479 0.678389109,107.842836 C4.41822651,85.2050698 22.1607109,67.4953711 44.7910758,63.8036738 C48.9831726,63.1245408 51.4184156,63.0722998 76.588391,63.1245408 L100.766875,63.1767818 L101.758366,63.6643644 C104.332766,64.9355621 105.515598,67.808817 104.593685,70.57759 C104.193609,71.779133 102.732464,73.294122 101.462658,73.7991183 C100.610323,74.1473916 100.071091,74.1473916 74.5010399,74.23446 L48.4091511,74.3215283 L46.2522216,74.7394563 C34.0934014,77.0032329 24.4046133,83.3940485 17.7076952,93.5636297 C15.2028739,97.3772226 12.8546039,103.141146 11.8979013,107.842836 C11.2890906,110.907641 11.0803555,113.014695 11.09775,116.636738 C11.09775,121.582219 11.6717716,125.169434 13.2024957,129.888538 C15.2202685,136.018148 18.7165816,141.747245 23.2565702,146.309625 C28.3357913,151.429243 33.6585366,154.703012 40.6163736,156.984203 C42.947249,157.750404 43.3821138,157.959368 44.1474759,158.638501 C44.6345245,159.073843 45.208546,159.82263 45.4868595,160.379868 C45.9217243,161.302792 45.9739081,161.563997 46.0782757,164.506907 C46.2696162,169.243424 47.0697674,172.621675 48.8614105,176.400441 C51.8532804,182.686774 58.0283607,188.119838 64.7774627,190.366201 C67.9606731,191.428435 69.6131594,191.672226 73.6313103,191.672226 C76.7797315,191.672226 77.5450936,191.619985 79.1106069,191.289126 C84.2246171,190.174651 88.6080545,187.963115 92.2435243,184.671932 C94.261297,182.826084 95.1832104,182.338501 96.7661184,182.234019 C98.2272641,182.146951 99.1317829,182.355915 100.227642,183.087289 C101.39308,183.870904 101.793156,184.480382 102.923804,187.196914 C107.968236,199.316826 115.865381,208.963997 126.423899,215.894636 C136.530157,222.546657 147.749669,225.907494 159.908489,225.959735 C164.222348,225.959735 166.640197,225.768185 170.606164,225.106466 C192.505956,221.414769 211.031197,205.707641 218.284742,184.654519 C220.893931,177.096988 222.111552,168.494636 221.589715,161.372447 C221.120061,155.086113 221.120061,155.033872 221.659293,153.849743 C222.21592,152.613373 223.294385,151.516312 224.494611,150.993902 C225.120817,150.715283 225.886179,150.610801 228.077898,150.488905 C231.087162,150.332182 231.713367,150.262528 233.800718,149.879427 C248.273019,147.267377 260.101342,136.26194 263.754207,122.034974 C264.67612,118.447759 264.954434,116.236223 264.954434,112.370389 C264.954434,108.504555 264.693515,106.345261 263.754207,102.688391 C262.13651,96.36723 258.970694,90.6729611 254.465494,86.0060985 C248.69049,80.0157972 241.83702,76.3240999 233.487616,74.7220426 C231.591605,74.3563556 231.226319,74.338942 203.481944,74.2518736 L175.389677,74.1473916 L174.224239,73.5727406 C172.084704,72.5279206 171.023634,70.7168993 171.162791,68.3138134 C171.284553,66.2067597 172.363018,64.5698751 174.224239,63.6643644 L175.215731,63.1767818 L202.873133,63.1767818 C224.56419,63.1767818 230.930611,63.2290228 232.356967,63.4031594 C249.473246,65.5276267 263.84118,75.7842763 271.216487,91.1605437 C273.773492,96.4542983 275.304216,102.009258 275.860843,107.912491 C276.121762,110.681264 275.965211,116.828288 275.58253,119.21396 C273.895254,129.80147 269.390055,138.717267 262.032142,146.065834 C254.63944,153.449229 245.368123,158.203159 234.913972,159.996767 C233.591983,160.223145 232.478729,160.432109 232.44394,160.466936 C232.426546,160.48435 232.478729,161.111242 232.565702,161.825202 C232.791832,163.549155 232.617886,169.852902 232.287389,172.708744 C230.826243,184.724173 226.547173,196.008229 219.711099,205.829537 C210.770278,218.698237 197.846096,228.380235 183.078087,233.308303 C178.277179,234.91036 173.528455,235.990007 168.344867,236.616899 C166.257516,236.878104 157.612403,237.104482 155.472868,236.947759 Z" id="Path"></path>
                    <path d="M136.060503,123.689273 C134.825487,123.20169 133.677444,122.139456 133.086028,120.937913 L132.598979,119.945334 L132.546795,70.7168993 C132.529401,43.6212344 132.459822,21.4710507 132.372849,21.4710507 C132.303271,21.4710507 128.024201,25.7025716 122.858007,30.8744306 C112.316884,41.4271124 112.769144,41.0614254 110.333901,41.0440118 C108.66402,41.0440118 107.37682,40.5390154 106.298355,39.4593681 C105.185101,38.3448935 104.767631,37.3000735 104.767631,35.6631888 C104.767631,33.0163115 103.793534,34.1656135 119.013802,18.8938281 C126.476082,11.3885378 133.833995,4.07479794 135.347325,2.62946363 L138.078276,0 L154.150879,16.0728141 C168.884099,30.7873622 170.275666,32.2326965 170.710531,33.2078619 C171.980337,35.9766348 170.832293,39.1110948 168.049159,40.4867744 C166.674986,41.1659074 165.179051,41.2355621 163.648327,40.7305658 C162.743808,40.4345334 162.152392,39.8772961 153.211571,30.9440852 C147.993193,25.737399 143.66194,21.4710507 143.592362,21.4710507 C143.522783,21.4710507 143.453205,43.7083027 143.43581,70.891036 L143.383626,120.293608 L142.983551,121.042395 C142.479108,122.000147 141.418037,123.044967 140.478729,123.53255 C139.400265,124.089787 137.26073,124.159442 136.060503,123.689273 Z" id="Path"></path>
                </g>
            </g>
        </g>
    </g>
</svg>