<?xml version="1.0" encoding="UTF-8"?>
<svg width="180px" height="180px" viewBox="0 0 180 180" version="1.1" xmlns="http://www.w3.org/2000/svg" xmlns:xlink="http://www.w3.org/1999/xlink" xmlns:sketch="http://www.bohemiancoding.com/sketch/ns">
    <!-- Generator: Sketch 3.5.1 (25234) - http://www.bohemiancoding.com/sketch -->
    <title>Group 2</title>
    <desc>Created with Sketch.</desc>
    <defs></defs>
    <g id="Page-1" stroke="none" stroke-width="1" fill="none" fill-rule="evenodd" sketch:type="MSPage">
        <g id="Group-2" sketch:type="MSLayerGroup">
            <g id="Group" fill="#FFFFFF" sketch:type="MSShapeGroup">
                <path d="M90,180 C139.705627,180 180,139.705627 180,90 C180,40.2943725 139.705627,0 90,0 C40.2943725,0 0,40.2943725 0,90 C0,139.705627 40.2943725,180 90,180 Z" id="Oval-1"></path>
            </g>
            <g id="linkedin" transform="translate(48.000000, 50.000000)" fill="#000000" sketch:type="MSShapeGroup">
                <g id="Capa_1">
                    <path d="M83.5178641,49.0374757 L83.5178641,79.9145631 L65.6172816,79.9145631 L65.6172816,51.1054369 C65.6172816,43.8683495 63.0281553,38.9293204 56.5487379,38.9293204 C51.6025243,38.9293204 48.6590291,42.2578641 47.3640777,45.4776699 C46.8918447,46.6287379 46.7702913,48.2308738 46.7702913,49.8421359 L46.7702913,79.9145631 L28.8636893,79.9145631 C28.8636893,79.9145631 29.1048544,31.1213592 28.8636893,26.0660194 L46.7685437,26.0660194 L46.7685437,33.698835 C46.732233,33.7559223 46.6850485,33.8174757 46.6508738,33.8728155 L46.7685437,33.8728155 L46.7685437,33.698835 C49.1473786,30.0349515 53.3957282,24.8009709 62.9048544,24.8009709 C74.6860194,24.8007767 83.5178641,32.4972816 83.5178641,49.0374757 L83.5178641,49.0374757 Z M10.1326214,0.108349515 C4.00679612,0.108349515 0,4.12640777 0,9.41029126 C0,14.5790291 3.89087379,18.7190291 9.89495146,18.7190291 L10.0145631,18.7190291 C16.2590291,18.7190291 20.1425243,14.5798058 20.1425243,9.41029126 C20.0248544,4.12640777 16.2590291,0.108349515 10.1326214,0.108349515 L10.1326214,0.108349515 Z M1.06349515,79.9145631 L18.963301,79.9145631 L18.963301,26.0660194 L1.06349515,26.0660194 L1.06349515,79.9145631 L1.06349515,79.9145631 Z" id="LinkedIn"></path>
                </g>
            </g>
        </g>
    </g>
</svg>