<?xml version="1.0" encoding="UTF-8"?>
<svg width="19px" height="25px" viewBox="0 0 19 25" version="1.1" xmlns="http://www.w3.org/2000/svg" xmlns:xlink="http://www.w3.org/1999/xlink" xmlns:sketch="http://www.bohemiancoding.com/sketch/ns">
    <!-- Generator: Sketch 3.5.1 (25234) - http://www.bohemiancoding.com/sketch -->
    <title>save</title>
    <desc>Created with Sketch.</desc>
    <defs></defs>
    <g id="Page-1" stroke="none" stroke-width="1" fill="none" fill-rule="evenodd" sketch:type="MSPage">
        <g id="save" sketch:type="MSLayerGroup" fill="#FFFFFF">
            <g id="Group" sketch:type="MSShapeGroup">
                <path d="M11.682,6.503 L11.682,7.477 L17.523,7.477 L17.523,24.026 L0.974,24.026 L0.974,7.477 L6.815,7.477 L6.815,6.503 L0,6.503 L0,7.477 L0,24.026 L0,25 L0.974,25 L17.523,25 L18.01,25 L18.497,25 L18.497,7.477 L18.497,6.503 L11.682,6.503 Z" id="Shape"></path>
                <path d="M8.762,1.863 L8.762,16.752 L9.735,16.752 L9.735,1.863 L13.285,5.413 L13.974,4.725 L9.248,0 L4.523,4.725 L5.212,5.413 L8.762,1.863 Z" id="Shape" transform="translate(9.248500, 8.376000) scale(1, -1) translate(-9.248500, -8.376000) "></path>
            </g>
        </g>
    </g>
</svg>