<?xml version="1.0" encoding="UTF-8"?>
<svg width="180px" height="180px" viewBox="0 0 180 180" version="1.1" xmlns="http://www.w3.org/2000/svg" xmlns:xlink="http://www.w3.org/1999/xlink" xmlns:sketch="http://www.bohemiancoding.com/sketch/ns">
    <!-- Generator: Sketch 3.5.1 (25234) - http://www.bohemiancoding.com/sketch -->
    <title>Group</title>
    <desc>Created with Sketch.</desc>
    <defs></defs>
    <g id="Page-1" stroke="none" stroke-width="1" fill="none" fill-rule="evenodd" sketch:type="MSPage">
        <g id="Group" sketch:type="MSLayerGroup">
            <path d="M90,180 C139.705627,180 180,139.705627 180,90 C180,40.2943725 139.705627,0 90,0 C40.2943725,0 0,40.2943725 0,90 C0,139.705627 40.2943725,180 90,180 Z" id="Oval-1" fill="#FFFFFF" sketch:type="MSShapeGroup"></path>
            <g id="twitter" transform="translate(45.000000, 54.000000)" fill="#010002" sketch:type="MSShapeGroup">
                <g id="Capa_1">
                    <path d="M89.4507042,8.68641365 C86.1584214,10.149492 82.6258494,11.1417349 78.9142298,11.5847189 C82.7040456,9.30867269 85.6050548,5.69854418 86.9799939,1.41001406 C83.4250592,3.51777912 79.5010673,5.04828715 75.3199777,5.87796586 C71.9718612,2.29583534 67.2094882,0.0646445783 61.9272195,0.0646445783 C51.7932732,0.0646445783 43.5765244,8.30528916 43.5765244,18.4631365 C43.5765244,19.9037871 43.7386173,21.3108695 44.0516948,22.6563855 C28.8032729,21.8882731 15.2820389,14.5614478 6.2324632,3.42806827 C4.65055965,6.14138153 3.75064464,9.30295582 3.75064464,12.6778133 C3.75064464,19.0629679 6.99264803,24.6968675 11.9115598,27.993008 C8.90429143,27.8921566 6.07592447,27.0624779 3.5998062,25.6833936 L3.5998062,25.913241 C3.5998062,34.8265703 9.92727423,42.2655341 18.3172241,43.9586064 C16.7800459,44.3734458 15.1591173,44.6032932 13.4822089,44.6032932 C12.2972794,44.6032932 11.151375,44.4855843 10.0278332,44.2613072 C12.3642213,51.576992 19.1389428,56.8969036 27.1656819,57.042757 C20.8884934,61.9759739 12.9735677,64.9078474 4.37679957,64.9078474 C2.89560115,64.9078474 1.43661924,64.8181365 0.000146161281,64.6555723 C8.12189009,69.8859197 17.7640037,72.935502 28.1271308,72.935502 C61.8827865,72.935502 80.3341866,44.8948534 80.3341866,20.5766185 L80.2726527,18.1941506 C83.8778669,15.615257 86.9968025,12.3751124 89.4507042,8.68641365 L89.4507042,8.68641365 Z" id="Shape"></path>
                </g>
            </g>
        </g>
    </g>
</svg>