<?xml version="1.0" encoding="UTF-8"?>
<svg width="180px" height="180px" viewBox="0 0 180 180" version="1.1" xmlns="http://www.w3.org/2000/svg" xmlns:xlink="http://www.w3.org/1999/xlink" xmlns:sketch="http://www.bohemiancoding.com/sketch/ns">
    <!-- Generator: Sketch 3.5.1 (25234) - http://www.bohemiancoding.com/sketch -->
    <title>Group 4</title>
    <desc>Created with Sketch.</desc>
    <defs></defs>
    <g id="Page-1" stroke="none" stroke-width="1" fill="none" fill-rule="evenodd" sketch:type="MSPage">
        <g id="Group-4" sketch:type="MSLayerGroup">
            <g id="Group" fill="#FFFFFF" sketch:type="MSShapeGroup">
                <path d="M90,180 C139.705627,180 180,139.705627 180,90 C180,40.2943725 139.705627,0 90,0 C40.2943725,0 0,40.2943725 0,90 C0,139.705627 40.2943725,180 90,180 Z" id="Oval-1"></path>
            </g>
            <g id="instagram" transform="translate(50.000000, 50.000000)" fill="#000000" sketch:type="MSShapeGroup">
                <g id="Group">
                    <path d="M40,7.21761905 C50.6771429,7.21761905 51.941746,7.2584127 56.1587302,7.45079365 C60.0574603,7.62873016 62.1746032,8.28 63.5838095,8.82761905 C65.3206493,9.46865396 66.8917431,10.4907924 68.1815873,11.8188889 C69.5096838,13.1087331 70.5318222,14.6798269 71.1728571,16.4166667 C71.7204762,17.8257143 72.3719048,19.9430159 72.5496825,23.841746 C72.7420635,28.0584127 72.7828571,29.3230159 72.7828571,40.0004762 C72.7828571,50.6779365 72.7420635,51.9422222 72.5496825,56.1592063 C72.371746,60.0579365 71.7203175,62.1750794 71.1728571,63.5842857 C69.8276001,67.0716538 67.0711776,69.8280763 63.5838095,71.1733333 C62.1747619,71.7209524 60.0574603,72.372381 56.1587302,72.5501587 C51.9428571,72.7425397 50.678254,72.7833333 40,72.7833333 C29.321746,72.7833333 28.057619,72.7425397 23.8412698,72.5501587 C19.9425397,72.3722222 17.8253968,71.7207937 16.4161905,71.1733333 C14.6793483,70.5323033 13.1082534,69.5101641 11.8184127,68.1820635 C10.4903204,66.8922159 9.46818261,65.3211231 8.82714286,63.5842857 C8.27952381,62.1752381 7.62809524,60.0579365 7.45031746,56.1592063 C7.25793651,51.9426984 7.21714286,50.6779365 7.21714286,40.0004762 C7.21714286,29.3230159 7.25793651,28.0587302 7.45031746,23.841746 C7.62825397,19.9430159 8.27952381,17.825873 8.82714286,16.4166667 C9.4682493,14.6797403 10.4904991,13.1085879 11.8187302,11.8187302 C13.1085778,10.4906379 14.6796706,9.46850007 16.4165079,8.82746032 C17.8255556,8.27984127 19.9428571,7.6284127 23.8415873,7.45063492 C28.058254,7.25825397 29.3228571,7.21746032 40.0003175,7.21746032 L40,7.21761905 Z M40.0003175,0.0125396825 C29.1403175,0.0125396825 27.7780952,0.0585714286 23.5136508,0.253174603 C19.2573016,0.447460317 16.3506349,1.12333333 13.8071429,2.11190476 C11.1389839,3.11597321 8.72195575,4.68996665 6.72460317,6.72412698 C4.68998442,8.72135433 3.11555148,11.1383919 2.11111111,13.8066667 C1.12333333,16.3503175 0.447460317,19.2569841 0.253968254,23.5133333 C0.0585714286,27.7777778 0.0125396825,29.14 0.0125396825,40 C0.0125396825,50.86 0.0585714286,52.2222222 0.253968254,56.4866667 C0.448253968,60.7430159 1.12412698,63.6496825 2.11269841,66.1931746 C3.11677143,68.8613312 4.69076427,71.2783585 6.72492063,73.2757143 C8.72226671,75.3098826 11.1392967,76.8838772 13.8074603,77.8879365 C16.3511111,78.8765079 19.2577778,79.552381 23.5139683,79.7466667 C27.7790476,79.9412698 29.1407937,79.9873016 40.0006349,79.9873016 C50.8604762,79.9873016 52.2228571,79.9412698 56.4873016,79.7466667 C60.7436508,79.552381 63.6503175,78.8765079 66.1938095,77.8879365 C71.5650385,75.8105506 75.8111855,71.5644036 77.8885714,66.1931746 C78.8771429,63.6495238 79.5530159,60.7428571 79.7473016,56.4866667 C79.9419048,52.2215873 79.9879365,50.8598413 79.9879365,40 C79.9879365,29.1401587 79.9419048,27.7777778 79.7473016,23.5133333 C79.5530159,19.2569841 78.8771429,16.3503175 77.8885714,13.8068254 C76.8845121,11.1386618 75.3105175,8.72163179 73.2763492,6.72428571 C71.2789559,4.68971984 68.8617518,3.11539262 66.1933333,2.11111111 C63.6496825,1.12333333 60.7430159,0.447460317 56.4866667,0.253968254 C52.2222222,0.0585714286 50.86,0.0125396825 40,0.0125396825 L40,0.0125396825 L40.0003175,0.0125396825 Z" id="Shape"></path>
                    <path d="M40,19.465873 C28.6593148,19.465873 19.465873,28.6593148 19.465873,40 C19.465873,51.3406852 28.6593148,60.534127 40,60.534127 C51.3406852,60.534127 60.534127,51.3406852 60.534127,40 C60.534127,28.6593148 51.3406852,19.465873 40,19.465873 L40,19.465873 Z M40,53.3290476 C32.6385909,53.32896 26.6710527,47.3613032 26.6711111,39.9998942 C26.6711696,32.6384851 32.6388026,26.6709232 40.0002116,26.6709524 C47.3616207,26.6709816 53.3292063,32.6385909 53.3292063,40 C53.3291187,47.3614554 47.3614554,53.3290476 40,53.3290476 L40,53.3290476 Z" id="Shape"></path>
                    <circle id="Oval" cx="61.3453968" cy="18.6546032" r="4.7984127"></circle>
                </g>
            </g>
        </g>
    </g>
</svg>