<?xml version="1.0" encoding="UTF-8"?>
<svg width="180px" height="180px" viewBox="0 0 180 180" version="1.1" xmlns="http://www.w3.org/2000/svg" xmlns:xlink="http://www.w3.org/1999/xlink" xmlns:sketch="http://www.bohemiancoding.com/sketch/ns">
    <!-- Generator: Sketch 3.5.1 (25234) - http://www.bohemiancoding.com/sketch -->
    <title>Group</title>
    <desc>Created with Sketch.</desc>
    <defs></defs>
    <g id="Page-1" stroke="none" stroke-width="1" fill="none" fill-rule="evenodd" sketch:type="MSPage">
        <g id="Group" sketch:type="MSLayerGroup">
            <path d="M90,180 C139.705627,180 180,139.705627 180,90 C180,40.2943725 139.705627,0 90,0 C40.2943725,0 0,40.2943725 0,90 C0,139.705627 40.2943725,180 90,180 Z" id="Oval-1" fill="#FFFFFF" sketch:type="MSShapeGroup"></path>
            <g id="twitter" transform="translate(41.000000, 50.000000)" fill="#010002" sketch:type="MSShapeGroup">
                <g id="Capa_1">
                    <path d="M98.028169,9.51935743 C94.4201878,11.1227309 90.548876,12.2101205 86.4813477,12.6955823 C90.6345706,10.2012851 93.8137586,6.24497992 95.3205413,1.54522088 C91.4247225,3.8551004 87.1244573,5.53236948 82.5424413,6.44160643 C78.8732726,2.51598394 73.6542336,0.0708433735 67.865446,0.0708433735 C56.7597514,0.0708433735 47.7550953,9.10168675 47.7550953,20.2335743 C47.7550953,21.8123695 47.9327313,23.3543775 48.2758299,24.8289157 C31.5652306,23.9871486 16.7474399,15.957751 6.83009666,3.75678715 C5.09650373,6.73028112 4.1102955,10.1950201 4.1102955,13.893494 C4.1102955,20.8909237 7.66317592,27.0650602 13.0537642,30.6772691 C9.75812759,30.566747 6.65854736,29.65751 3.9449931,28.1461847 L3.9449931,28.3980723 C3.9449931,38.1661044 10.8792046,46.3183936 20.0736703,48.1738153 C18.3890914,48.6284337 16.6127313,48.8803213 14.7750235,48.8803213 C13.4764706,48.8803213 12.2206849,48.7513253 10.9894062,48.5055422 C13.5498315,56.5227309 20.9741839,62.3527711 29.7706103,62.5126104 C22.8914996,67.9188755 14.2176084,71.1318876 4.79649268,71.1318876 C3.17326153,71.1318876 1.57437724,71.0335743 0.000160176747,70.8554217 C8.90070146,76.5873092 19.4674013,79.9293173 30.824253,79.9293173 C67.8167523,79.9293173 88.0374648,49.1998394 88.0374648,22.5497189 L87.9700304,19.9387952 C91.92095,17.1126104 95.3389616,13.5617671 98.028169,9.51935743 L98.028169,9.51935743 Z" id="Shape"></path>
                </g>
            </g>
        </g>
    </g>
</svg>